# xmcd CD database file
#
# Track frame offsets:
#	150
#	20392
#	47434
#	65812
#	88593
#	120199
#	144120
#	166790
#	190756
#	210125
#	236917
#
# Disc length: 3281 seconds
#
# Revision: 0
# Processed by: cddbd v1.5.2PL0 Copyright (c) Steve Scherf et al.
# Submitted via: CDex 1.70beta2
#
DISCID=810ccf0b
DTITLE=MAY INOUE - FIRST TRAIN
DYEAR=2011
DGENRE=Jazz
TTITLE0=first train
TTITLE1=hawk's eyes
TTITLE2=ganeze
TTITLE3=tell me a bedtime story
TTITLE4=village
TTITLE5=relaxin'
TTITLE6=darn that dream 
TTITLE7=kashimir
TTITLE8=diamond dust
TTITLE9=the other side of the earth
TTITLE10=change the world
EXTD=YEAR: 2011
EXTT0=
EXTT1=
EXTT2=
EXTT3=
EXTT4=
EXTT5=
EXTT6=
EXTT7=
EXTT8=
EXTT9=
EXTT10=
PLAYORDER=
